Coordinates
version=1
nRows=17
nColumns=24
inDegrees=yes

Units are S.I. units (second, meters, Newtons, ...)
Angles are in degrees.

endheader
time	pelvis_tilt	pelvis_list	pelvis_rotation	pelvis_tx	pelvis_ty	pelvis_tz	hip_flexion_r	hip_adduction_r	hip_rotation_r	knee_angle_r	ankle_angle_r	subtalar_angle_r	mtp_angle_r	hip_flexion_l	hip_adduction_l	hip_rotation_l	knee_angle_l	ankle_angle_l	subtalar_angle_l	mtp_angle_l	lumbar_extension	lumbar_bending	lumbar_rotation
      1.26666667	     -0.02640229	     -4.46175608	     -0.82337080	      0.00098127	      1.03906859	      0.32579841	    -18.10265278	     10.09599208	     -2.25106298	     -6.19237603	      8.40939256	     -8.73837605	     -2.59095505	     23.69323337	     -1.49416180	     -5.86618595	      1.35570898	     11.56947785	     10.08499119	     -0.91917783	      3.55916381	      7.66109263	      1.32734387
      1.27083333	     -0.01181422	     -4.35087791	     -0.87633879	      0.00690650	      1.03888607	      0.32578901	    -18.23038991	      9.91933130	     -2.41386012	     -6.60303959	      8.07953044	     -8.55050899	     -2.55364408	     23.58511849	     -1.37259911	     -5.95542391	      0.99433975	     11.48036396	      9.96696687	     -0.94223905	      3.50781977	      7.50156654	      1.39711873
      1.27500000	      0.00793948	     -4.31733329	     -0.90458202	      0.01265125	      1.03869838	      0.32581368	    -18.35389741	      9.84303609	     -2.38552161	     -7.03433154	      8.00200568	     -8.51343597	     -2.54317322	     23.48169324	     -1.33346413	     -5.86907948	      0.61430972	     11.41739099	      9.95541203	     -0.94670445	      3.57299234	      7.44028077	      1.42271977
      1.27916667	      0.06212874	     -4.20789051	     -0.97214540	      0.01862697	      1.03863898	      0.32579002	    -18.49738529	      9.65552341	     -2.55884452	     -7.49697434	      7.63731306	     -8.30833502	     -2.49390733	     23.28917876	     -1.21808936	     -5.89150302	      0.31444483	     11.13480876	      9.79543761	     -0.96646684	      3.51705109	      7.27753766	      1.50741827
      1.28333333	      0.08612673	     -4.17656323	     -0.99594386	      0.02442139	      1.03850551	      0.32580243	    -18.60068986	      9.58007112	     -2.53131960	     -7.97670260	      7.55610496	     -8.27765999	     -2.48213669	     23.15531187	     -1.18000439	     -5.80134543	     -0.03561347	     11.05399265	      9.77344456	     -0.96898401	      3.58744916	      7.21061715	      1.53424014
      1.28750000	      0.35643023	     -3.99806839	     -1.00409345	      0.03047280	      1.03878503	      0.32557279	    -18.95300748	      9.30769262	     -2.87635825	     -8.46892572	      7.29538248	     -7.76641480	     -2.21403201	     22.65544270	     -0.94982065	     -5.53018863	     -0.18779397	     10.51184286	      9.03991302	     -0.99050523	      3.25240764	      6.99830155	      1.78798560
      1.29166667	      0.32260973	     -3.91557489	     -1.10704263	      0.03656258	      1.03870084	      0.32558674	    -18.96424206	      9.13666403	     -2.93250324	     -9.01701532	      6.99739098	     -7.70588256	     -2.16434282	     22.50914330	     -0.87516467	     -5.53220130	     -0.43019090	     10.25661230	      8.97877759	     -0.99245974	      3.34638882	      6.90077440	      1.81260858
      1.29583333	      0.34039851	     -3.89017092	     -1.14652441	      0.04244512	      1.03865855	      0.32558077	    -19.00636422	      9.05395418	     -2.92750490	     -9.60376560	      6.85018698	     -7.68600358	     -2.14781754	     22.33876203	     -0.84546222	     -5.47270925	     -0.70604573	     10.11509114	      8.96177986	     -0.99218652	      3.44206176	      6.81515194	      1.83460525
      1.30000000	      0.32159513	     -3.72499308	     -1.27469611	      0.04880903	      1.03869603	      0.32555869	    -19.00361822	      8.76925275	     -3.12082223	    -10.19632772	      6.29472263	     -7.51512281	     -2.08225889	     22.11548486	     -0.68056006	     -5.58011206	     -0.83961165	      9.47258328	      8.76032678	     -0.99143311	      3.48622661	      6.64801015	      1.89822832
      1.30416667	      0.36758776	     -3.61718160	     -1.36685779	      0.05496685	      1.03881999	      0.32553213	    -19.04184145	      8.55928069	     -3.24141074	    -10.83968051	      5.90266190	     -7.35155699	     -1.99983185	     21.83420919	     -0.56750963	     -5.53862058	     -0.97073387	      8.94224223	      8.51452494	     -0.97867539	      3.52943310	      6.49033632	      1.97832925
      1.30833333	      0.40717956	     -3.60254723	     -1.39892338	      0.06085628	      1.03890063	      0.32552652	    -19.04148463	      8.48321619	     -3.25545679	    -11.53661309	      5.75349287	     -7.32960391	     -1.97979387	     21.61377829	     -0.54609485	     -5.46941454	     -1.19480288	      8.78971294	      8.47006630	     -0.97413931	      3.61545105	      6.39816586	      2.00586578
      1.31250000	      0.38099714	     -3.39882918	     -1.55444150	      0.06740324	      1.03904358	      0.32546869	    -18.96626401	      8.12834084	     -3.51648351	    -12.25066529	      5.12904633	     -7.12149450	     -1.89973975	     21.34712386	     -0.33486565	     -5.59558181	     -1.23240236	      8.02901945	      8.13065914	     -0.95941967	      3.61339819	      6.23711548	      2.08552107
      1.31666667	      0.60754321	     -3.28168517	     -1.56799317	      0.07346406	      1.03947191	      0.32523150	    -19.13404096	      7.90409116	     -3.68260832	    -12.97825156	      4.73493882	     -6.72041222	     -1.50392782	     20.81363493	     -0.15827624	     -5.04529571	     -1.20243375	      7.05251503	      6.88681140	     -0.81405390	      3.51114198	      6.01648583	      2.37607396
      1.32083333	      0.61036197	     -3.17351447	     -1.66426188	      0.07966996	      1.03966544	      0.32517192	    -19.01007365	      7.67451374	     -3.92568098	    -13.82097442	      4.25975800	     -6.61999259	     -1.39533648	     20.59054338	     -0.03935187	     -5.24672443	     -1.36868160	      6.67809289	      6.69088315	     -0.77243249	      3.58570562	      5.89938411	      2.40472158
      1.32500000	      0.58183583	     -3.04201810	     -1.81764559	      0.08599925	      1.03988756	      0.32518506	    -18.84218544	      7.39792833	     -4.05011764	    -14.69688043	      3.82943708	     -6.53434595	     -1.31779230	     20.34214358	      0.08766669	     -5.24736197	     -1.43430159	      6.25353218	      6.58403549	     -0.74349090	      3.60850681	      5.78040976	      2.43095242
      1.32916667	      0.63497579	     -2.93379295	     -1.87711361	      0.09217495	      1.04020650	      0.32515207	    -18.73435667	      7.17811840	     -4.23176629	    -15.57034532	      3.11036020	     -6.32430082	     -1.15856602	     20.06717687	      0.21306739	     -5.37093374	     -1.57749249	      5.46881702	      6.16105905	     -0.68350734	      3.76402043	      5.55142018	      2.52632709
      1.33333333	      0.65146272	     -2.80276555	     -1.98751926	      0.09841749	      1.04053626	      0.32509359	    -18.55058910	      6.90224080	     -4.43148523	    -16.52797430	      2.50918340	     -6.19355511	     -0.98202582	     19.79646020	      0.35846248	     -5.37553814	     -1.67271125	      4.84911272	      5.70842084	     -0.61004266	      3.81998392	      5.38280067	      2.60726329
